<?xml version="1.0" encoding="UTF-8"?>
<svg version="1.1" id="Layer_1" xmlns="http://www.w3.org/2000/svg" xmlns:xlink="http://www.w3.org/1999/xlink" x="0px"
     y="0px" viewBox="0 -40 1000 1000" enable-background="new 0 0 1000 1000" xml:space="preserve" width="1000px"
     height="1000px">
<path id="XMLID_429_" fill="#92CED7" d="M323.492,695.563c-115.773-24.337-161.855-39.627-191.168-83.628
	c-27.902-41.883-40.179-109.13-11.592-146.832c20.981-27.67,46.783-16.753,82.086-47.583c7.564-6.606,13.117-12.404,17.67-19.568
	c34.901-54.931-53.145-131.328-28.272-182.075c7.894-16.106,73.302-26.928,203.797-47.914c28.452-4.576,50.335-7.259,78.213-0.585
	c53.274,12.753,64.954,68.694,91.151,64.072c24.119-4.255,18.627-48.247,52.244-71.414c44.872-30.924,117.078,4.441,122.191,7.022
	c63.861,32.245,86.707,98.141,115.077,184.058c36.011,109.054,64.83,193.074,22.694,269.922
	c-35.313,64.404-97.195,91.365-130.444,105.474C659.661,763.632,546.883,742.523,323.492,695.563z"/>
    <g id="XMLID_351_">
	<path id="XMLID_427_" fill="#92CED7" d="M754.945,289l-101.647-24l-43.431,63.353l8.372,33.095l-41.605-6.595l-37.569,8.031
		l-6.877,18.775c-20.7-40.317-39.843-80.937-55.716-116.659c0,14-59.554,45.929-134.769,56
		C315.39,377,92.017,689.216,92.017,689.216l770.07-1.599L754.945,289z"/>
        <path id="XMLID_402_" opacity="0.4" fill="#FFFFFF" d="M518.739,355l25.417,49.591l14.987,8.473
		l25.773-3.1h35.556l32.825,35.124l21.694-4.767c0,0,14.72-0.902,26.008-2.335V379l-107.962-60L518.739,355z"/>
        <path id="XMLID_385_" opacity="0.14" fill="#686868" d="M518.739,355l20.326-9.848l56.663,148.945
		C595.728,494.096,527.299,382.958,518.739,355z"/>
        <g id="XMLID_384_">
		<path fill="#51B3C3" d="M653.298,448.088c-0.821,0-1.618-0.338-2.191-0.952l-31.937-34.172h-34.073l-25.595,3.078
			c-0.635,0.075-1.278-0.052-1.835-0.367l-14.987-8.473c-0.511-0.289-0.926-0.721-1.193-1.243l-25.417-49.591
			c-0.368-0.718-0.432-1.555-0.175-2.32c0.256-0.766,0.811-1.396,1.536-1.748l74.299-36c0.879-0.427,1.911-0.397,2.766,0.078
			l107.962,60c0.952,0.529,1.543,1.533,1.543,2.622v58.986c0,1.511-1.123,2.786-2.622,2.976c-10.477,1.33-24.024,2.215-25.968,2.338
			l-21.469,4.718C653.728,448.065,653.512,448.088,653.298,448.088z M584.917,406.965h35.556c0.831,0,1.625,0.345,2.191,0.952
			l31.659,33.875l20.025-4.4c0.151-0.033,0.305-0.055,0.46-0.064c0.135-0.008,12.581-0.779,23.191-2v-54.562L592.942,322.38
			l-70.135,33.982l23.607,46.061l13.347,7.546l24.796-2.982C584.678,406.972,584.797,406.965,584.917,406.965z"/>
	</g>
        <path id="XMLID_400_" opacity="0.4" fill="#FFFFFF" d="M313.472,368.654l15.545,23.066l87.902-18.088
		l45.306,36.332l39.231-11.01l37.609-4.025c-23.333-44.604-44.976-90.284-62.592-129.931c0,14-59.554,45.929-134.769,56
		C337.253,330.471,327.161,347.277,313.472,368.654z"/>
        <g id="XMLID_353_">
		<path fill="#51B3C3" d="M462.225,412.965c-0.674,0-1.338-0.228-1.877-0.66l-44.206-35.45l-86.521,17.803
			c-1.192,0.244-2.413-0.253-3.092-1.262l-15.545-23.066c-0.668-0.992-0.684-2.287-0.039-3.294
			c14.485-22.622,23.92-38.54,28.042-47.312c0.434-0.923,1.307-1.562,2.317-1.698c45.301-6.065,78.81-19.073,94.752-26.286
			c27.451-12.421,37.416-22.797,37.416-26.74c0-1.417,0.991-2.641,2.377-2.935c1.39-0.296,2.79,0.422,3.364,1.716
			c13.817,31.096,35.878,78.851,62.509,129.758c0.46,0.88,0.455,1.93-0.013,2.805s-1.339,1.463-2.326,1.568l-37.359,3.998
			l-38.99,10.942C462.768,412.928,462.496,412.965,462.225,412.965z M416.919,370.633c0.676,0,1.34,0.229,1.877,0.66l44.103,35.367
			l37.747-10.593c0.161-0.045,0.325-0.077,0.491-0.094l33.233-3.557c-24.104-46.334-44.325-89.748-57.888-120.031
			c-1.949,2.588-4.847,5.343-8.679,8.246c-7.142,5.41-17.264,11.141-29.273,16.575c-16.053,7.264-49.575,20.292-94.824,26.548
			c-4.423,9.006-13.375,24.076-26.646,44.856l13.321,19.765l85.933-17.682C416.515,370.653,416.718,370.633,416.919,370.633z"/>
	</g>
        <g id="XMLID_399_">
		<path fill="#51B3C3" d="M92.017,692.216c-1.123,0-2.152-0.627-2.667-1.626c-0.516-1-0.428-2.204,0.227-3.12
			c2.232-3.119,223.514-312.631,249.411-367.746c0.434-0.923,1.307-1.562,2.317-1.698c45.301-6.065,78.81-19.073,94.752-26.286
			c27.451-12.421,37.416-22.797,37.416-26.74c0-1.417,0.991-2.641,2.377-2.935c1.39-0.296,2.79,0.422,3.364,1.716
			c17.846,40.164,54.011,118.28,95.705,190.191c40.74,70.268,75.313,115.136,102.757,133.36c1.381,0.916,1.757,2.778,0.84,4.158
			c-0.916,1.381-2.779,1.757-4.158,0.84c-28.22-18.737-63.422-64.275-104.629-135.349c-39.792-68.63-74.547-142.855-93.246-184.597
			c-1.949,2.588-4.846,5.343-8.679,8.246c-7.142,5.41-17.264,11.141-29.273,16.575c-16.053,7.264-49.574,20.292-94.823,26.548
			c-27.43,55.893-216.921,321.935-245.851,362.449l760.32-1.579L752.513,291.508l-97.903-23.116l-42.268,61.657
			c-0.938,1.366-2.805,1.715-4.171,0.778c-1.366-0.937-1.715-2.804-0.778-4.171l43.431-63.353c0.7-1.021,1.956-1.506,3.164-1.224
			l101.647,24c1.073,0.254,1.922,1.076,2.208,2.141l107.142,398.618c0.241,0.899,0.052,1.861-0.515,2.602s-1.444,1.175-2.377,1.177
			l-770.07,1.599C92.021,692.216,92.019,692.216,92.017,692.216z"/>
	</g>
        <polygon id="XMLID_383_" opacity="0.14" fill="#686868" points="662.795,354.852 706.884,367.74
		715.023,382.044 755.181,490.811 701,488.242 701,379 	"/>
        <polygon id="XMLID_397_" opacity="0.4" fill="#FFFFFF" points="711.469,337.482 730.965,326.979
		756.958,367.053 785.118,401.258 785.118,401.258 754.945,289 653.298,265 622.99,309.21 636.791,319 682.226,319 	"/>
        <g id="XMLID_405_">
		<path fill="#51B3C3" d="M785.119,404.258c-0.874,0-1.731-0.382-2.317-1.093l-28.16-34.205c-0.071-0.087-0.139-0.179-0.2-0.274
			l-24.488-37.753l-17.061,9.192c-0.954,0.513-2.11,0.473-3.025-0.105L681.358,322h-44.567c-0.622,0-1.229-0.193-1.735-0.553
			l-13.801-9.79c-1.337-0.948-1.665-2.792-0.739-4.143l30.308-44.21c0.7-1.021,1.956-1.509,3.164-1.224l101.647,24
			c1.073,0.254,1.922,1.076,2.208,2.141l30.173,112.258c0.366,1.364-0.269,2.799-1.523,3.446
			C786.056,404.149,785.585,404.258,785.119,404.258z M759.383,365.277l19.239,23.37l-26.109-97.139l-97.903-23.116l-27.476,40.079
			L637.747,316h44.479c0.567,0,1.123,0.161,1.603,0.464l27.762,17.546l17.951-9.672c1.375-0.743,3.09-0.303,3.939,1.009
			L759.383,365.277z"/>
	</g>
        <g id="XMLID_398_">
		<path fill="#51B3C3" d="M701,503.93c-1.657,0-3-1.343-3-3V380.765l-105.057-58.386l-72.896,35.32
			c-1.489,0.722-3.285,0.101-4.009-1.392c-0.722-1.491-0.099-3.286,1.392-4.008l74.299-36c0.879-0.427,1.911-0.397,2.766,0.078
			l107.962,60c0.952,0.529,1.543,1.533,1.543,2.622v121.93C704,502.587,702.657,503.93,701,503.93z"/>
	</g>
</g>
    <g id="XMLID_338_">
	<path id="XMLID_390_" fill="#92CED7" d="M500.716,497.6c5.615,59.266-21.309,115.94-61.144,115.94s-66.759-56.675-61.144-115.94
		c4.744-50.07,31.838-85.295,61.144-85.295S495.973,447.53,500.716,497.6z"/>
        <g id="XMLID_330_">
		<path fill="#51B3C3" d="M439.572,616.54c-13.586,0-26.428-6.222-37.136-17.993c-20.128-22.126-30.725-61.86-26.995-101.229
			c4.754-50.176,32.324-88.013,64.131-88.013s59.377,37.837,64.131,88.013c3.729,39.369-6.867,79.104-26.995,101.229
			C466,610.318,453.158,616.54,439.572,616.54z M439.572,415.305c-13.403,0-26.672,8.042-37.363,22.644
			c-11.197,15.294-18.583,36.579-20.795,59.935c-3.578,37.765,6.416,75.693,25.459,96.627c9.541,10.487,20.848,16.03,32.698,16.03
			s23.157-5.543,32.698-16.03c19.044-20.934,29.038-58.862,25.459-96.627c-2.212-23.355-9.598-44.641-20.795-59.935
			C466.244,423.346,452.975,415.305,439.572,415.305z"/>
	</g>
        <g id="XMLID_332_">
		<path fill="#51B3C3" d="M439.572,690.617c-1.657,0-3-1.343-3-3V465.589c0-1.657,1.343-3,3-3s3,1.343,3,3v222.028
			C442.572,689.274,441.229,690.617,439.572,690.617z"/>
	</g>
        <g id="XMLID_377_">
		<path fill="#51B3C3" d="M439.572,587.316c-0.796,0-1.559-0.316-2.122-0.879l-22.653-22.653c-1.171-1.171-1.171-3.071,0-4.242
			c1.171-1.172,3.071-1.172,4.243,0l20.531,20.531l20.531-20.531c1.172-1.172,3.072-1.172,4.243,0c1.172,1.171,1.172,3.071,0,4.242
			l-22.653,22.653C441.13,587,440.368,587.316,439.572,587.316z"/>
	</g>
        <g id="XMLID_376_">
		<path fill="#51B3C3" d="M439.572,555.291c-0.768,0-1.536-0.293-2.121-0.879l-22.653-22.652c-1.172-1.171-1.172-3.071,0-4.242
			c1.172-1.172,3.072-1.172,4.243,0l20.532,20.531l20.532-20.531c1.171-1.173,3.071-1.171,4.243,0s1.171,3.071,0,4.242
			l-22.653,22.652C441.107,554.998,440.339,555.291,439.572,555.291z"/>
	</g>
        <g id="XMLID_375_">
		<path fill="#51B3C3" d="M439.572,523.267c-0.768,0-1.536-0.293-2.121-0.879l-22.653-22.653c-1.172-1.171-1.172-3.071,0-4.242
			c1.171-1.172,3.071-1.172,4.242,0l20.532,20.532l20.532-20.532c1.171-1.172,3.071-1.172,4.242,0c1.172,1.171,1.172,3.071,0,4.242
			l-22.653,22.653C441.107,522.974,440.339,523.267,439.572,523.267z"/>
	</g>
        <g id="XMLID_369_">
		<path fill="#51B3C3" d="M439.572,491.242c-0.768,0-1.536-0.293-2.121-0.879l-22.653-22.653c-1.172-1.171-1.172-3.071,0-4.242
			c1.171-1.172,3.071-1.172,4.242,0L439.572,484l20.532-20.531c1.171-1.172,3.071-1.172,4.242,0c1.172,1.171,1.172,3.071,0,4.242
			l-22.653,22.653C441.107,490.949,440.339,491.242,439.572,491.242z"/>
	</g>
</g>
    <g id="XMLID_381_">
	<path id="XMLID_379_" fill="#92CED7" d="M424.488,572.895c3.873,30.056-14.698,58.797-42.176,58.797s-46.049-28.742-42.176-58.797
		c3.272-25.392,21.961-43.256,42.176-43.256S421.216,547.503,424.488,572.895z"/>
        <g id="XMLID_396_">
		<path fill="#51B3C3" d="M382.312,634.692c-12.048,0-23.312-5.263-31.716-14.819c-10.671-12.134-15.694-29.84-13.436-47.362
			c3.37-26.151,22.781-45.872,45.152-45.872s41.781,19.721,45.151,45.872c2.258,17.522-2.765,35.229-13.437,47.363
			C405.624,629.43,394.36,634.692,382.312,634.692z M382.312,532.639c-19.363,0-36.215,17.471-39.201,40.64
			c-2.041,15.837,2.441,31.774,11.991,42.633c7.353,8.361,16.762,12.781,27.21,12.781c10.447,0,19.856-4.42,27.209-12.781
			c9.549-10.858,14.032-26.796,11.991-42.633l0,0C418.527,550.109,401.674,532.639,382.312,532.639z"/>
	</g>
        <g id="XMLID_395_">
		<path fill="#51B3C3" d="M382.312,690.617c-1.657,0-3-1.343-3-3V544.43c0-1.657,1.343-3,3-3s3,1.343,3,3v143.188
			C385.312,689.274,383.969,690.617,382.312,690.617z"/>
	</g>
        <g id="XMLID_392_">
		<path fill="#51B3C3" d="M382.312,619.362c-0.768,0-1.536-0.293-2.121-0.879l-15.625-15.625c-1.172-1.171-1.172-3.07,0-4.242
			s3.072-1.172,4.243,0l13.504,13.504l13.504-13.504c1.171-1.172,3.071-1.172,4.242,0c1.172,1.171,1.172,3.071,0,4.242
			l-15.625,15.625C383.848,619.069,383.08,619.362,382.312,619.362z"/>
	</g>
        <g id="XMLID_387_">
		<path fill="#51B3C3" d="M382.312,597.272c-0.796,0-1.559-0.316-2.122-0.879l-15.625-15.626c-1.171-1.172-1.171-3.071,0-4.242
			c1.171-1.173,3.071-1.171,4.243,0l13.504,13.504l13.503-13.504c1.172-1.172,3.072-1.172,4.243,0c1.172,1.171,1.172,3.07,0,4.242
			l-15.625,15.626C383.871,596.956,383.108,597.272,382.312,597.272z"/>
	</g>
        <g id="XMLID_386_">
		<path fill="#51B3C3" d="M382.312,575.183c-0.796,0-1.559-0.316-2.122-0.879l-15.625-15.626c-1.171-1.172-1.171-3.071,0-4.242
			c1.171-1.172,3.071-1.172,4.243,0l13.504,13.504l13.503-13.504c1.172-1.172,3.072-1.172,4.243,0c1.172,1.171,1.172,3.07,0,4.242
			l-15.625,15.626C383.871,574.866,383.108,575.183,382.312,575.183z"/>
	</g>
</g>
    <g id="XMLID_337_">
	<path id="XMLID_276_" fill="#92CED7" d="M949.752,514.461c-8.158-9.461-10.291-21.41-6.079-32.449
		c2.186-5.73,3.385-11.958,3.385-18.47c0-28.298-22.627-51.237-50.539-51.237s-50.539,22.94-50.539,51.237
		c0,6.512,1.199,12.74,3.385,18.47c4.212,11.04,2.079,22.989-6.079,32.449c-9.912,11.496-15.871,26.254-15.871,42.352
		c0,36.685,30.939,66.424,69.105,66.424s69.105-29.739,69.105-66.424C965.624,540.715,959.665,525.957,949.752,514.461z"/>
        <g id="XMLID_335_">
		<path fill="#51B3C3" d="M896.519,626.237c-39.759,0-72.104-31.144-72.104-69.424c0-16.16,5.895-31.896,16.599-44.312
			c7.391-8.569,9.413-19.293,5.549-29.421c-2.377-6.23-3.582-12.805-3.582-19.539c0-29.907,24.018-54.237,53.539-54.237
			c29.522,0,53.54,24.331,53.54,54.237c0,6.735-1.205,13.31-3.583,19.54c-3.863,10.127-1.841,20.851,5.549,29.42
			c10.704,12.414,16.6,28.15,16.6,44.312C968.624,595.094,936.277,626.237,896.519,626.237z M896.519,415.305
			c-26.213,0-47.539,21.639-47.539,48.237c0,6.001,1.072,11.855,3.188,17.4c4.676,12.254,2.267,25.186-6.61,35.478
			c-9.765,11.326-15.143,25.671-15.143,40.394c0,34.972,29.654,63.424,66.104,63.424s66.105-28.452,66.105-63.424
			c0-14.723-5.378-29.068-15.144-40.394c-0.001,0-0.001,0-0.001,0c-8.875-10.292-11.284-23.223-6.609-35.478
			c2.115-5.544,3.188-11.398,3.188-17.4C944.059,436.944,922.732,415.305,896.519,415.305z"/>
	</g>
        <g id="XMLID_333_">
		<path fill="#51B3C3" d="M896.519,692.216c-1.657,0-3-1.343-3-3V446.453c0-1.657,1.343-3,3-3s3,1.343,3,3v242.763
			C899.519,690.873,898.176,692.216,896.519,692.216z"/>
	</g>
        <g id="XMLID_370_">
		<path fill="#51B3C3" d="M896.519,601.481c-0.768,0-1.535-0.293-2.121-0.879l-24.982-24.982c-1.172-1.171-1.172-3.071,0-4.242
			c1.172-1.172,3.07-1.172,4.242,0l22.861,22.861l22.862-22.861c1.172-1.172,3.07-1.172,4.242,0s1.172,3.071,0,4.242l-24.983,24.982
			C898.054,601.188,897.286,601.481,896.519,601.481z"/>
	</g>
        <g id="XMLID_372_">
		<path fill="#51B3C3" d="M896.519,566.163c-0.796,0-1.559-0.316-2.121-0.879l-24.982-24.983c-1.172-1.172-1.172-3.071,0-4.242
			c1.172-1.172,3.07-1.172,4.242,0l22.861,22.861l22.862-22.861c1.172-1.172,3.07-1.172,4.242,0c1.172,1.171,1.172,3.071,0,4.242
			l-24.983,24.983C898.077,565.847,897.314,566.163,896.519,566.163z"/>
	</g>
        <g id="XMLID_373_">
		<path fill="#51B3C3" d="M896.519,530.844L896.519,530.844c-0.796,0-1.559-0.316-2.121-0.879l-24.982-24.983
			c-1.172-1.172-1.172-3.071,0-4.243c1.172-1.171,3.07-1.171,4.242,0l22.861,22.861l22.862-22.861c1.172-1.172,3.07-1.172,4.242,0
			c1.172,1.171,1.172,3.071,0,4.242l-24.983,24.983C898.077,530.527,897.314,530.844,896.519,530.844z"/>
	</g>
        <g id="XMLID_374_">
		<path fill="#51B3C3" d="M896.519,495.524L896.519,495.524c-0.796,0-1.559-0.316-2.121-0.879l-24.982-24.983
			c-1.172-1.171-1.172-3.071,0-4.243c1.172-1.171,3.07-1.171,4.242,0l22.861,22.862l22.862-22.862c1.172-1.172,3.07-1.172,4.242,0
			c1.172,1.171,1.172,3.071,0,4.242l-24.983,24.983C898.077,495.208,897.314,495.524,896.519,495.524z"/>
	</g>
</g>
    <path id="XMLID_419_" fill="#92CED7" d="M153.913,270.813c-15.655-3.298-34.61,23.712-42.504,44.436
	c-13.848,36.356-5.594,84.711,11.592,88.872c18.286,4.427,52.315-39.812,52.164-83.076
	C175.099,302.173,168.495,273.884,153.913,270.813z"/>
    <path id="XMLID_413_" fill="#FFFFFF" d="M940.137,689H76.777v55.923l35.789,40.363l6.854-31.32l48.703,50.92
	c27.45-3.731,54.901-7.461,82.351-11.192c21.228-37.397,30.47-47.204,34.147-45.709c7.39,3.004-8.387,51.384,6.216,59.163
	c8.314,4.429,22.092-6.636,27.226-0.884c3.14,3.518-0.992,8.801,2.102,14.804c3.599,6.983,13.622,8.433,19.462,9.278
	c19.167,2.773,36.061-4.592,45.392-9.743c10.634-7.198,21.268-14.395,31.901-21.593c7.553-4.004,30.654-14.987,60.133-9.792
	c40.811,7.191,61.22,39.638,64.373,44.839c20.742,0,41.484,0,62.227,0c7.406-8.418,14.812-16.836,22.218-25.255
	c38.563,10.661,77.127,21.321,115.69,31.982c28.03-2.803,56.06-5.606,84.09-8.409c4.864-7.205,9.728-14.41,14.592-21.614l0,0
	l56.277-3.917c0,0,10.209,3.917,10.209-11.751s5.875-25.46,5.875-25.46s-9.792-17.626-3.917-23.502
	c5.875-5.875,5.875-5.875,5.875-5.875L940.137,689z"/>
    <g id="XMLID_278_">
	<path fill="#534668" d="M940.137,692H76.777c-1.657,0-3-1.343-3-3s1.343-3,3-3h863.36c1.657,0,3,1.343,3,3S941.794,692,940.137,692
		z"/>
</g>
    <g id="XMLID_298_">
	<path fill="#534668" d="M636.791,692H478.803c-1.657,0-3-1.343-3-3s1.343-3,3-3h157.988c1.657,0,3,1.343,3,3
		S638.448,692,636.791,692z"/>
</g>
    <g>
	<polygon id="XMLID_297_" fill="#F4646C"
             points="840.242,536.534 670.121,445.088 500.849,536.534 478.803,689 862.287,689 	"/>
        <polygon id="XMLID_309_" opacity="0.23" fill="#F4646C" points="653.298,689 653.298,536.534
		500.849,536.534 478.803,689 	"/>
        <path id="XMLID_388_" fill="#F4536D" d="M595.564,689.216c0,0,10.915-21.136,19.576-24.556c18.649-7.364,7.321-15.294,7.321-15.294
		s-26.299-23.823-45.827-70.72C582.893,615.37,586.852,680.504,595.564,689.216z"/>
        <polygon id="XMLID_394_" fill="#FA8F97" points="497.304,536.534 478.803,689 489.956,689 508.457,536.534 	"/>
        <polygon id="XMLID_295_" fill="#F4646C" points="500.849,536.534 840.242,536.534 670.121,445.088 	"/>
        <polygon id="XMLID_426_" opacity="0.7" fill="#FA8F97" points="674.551,451.891 832.016,536.534
		840.242,536.534 670.121,445.088 500.849,536.534 517.871,536.534 	"/>
        <polygon id="XMLID_304_" fill="#DD4A58"
                 points="840.242,536.534 670.121,445.088 640.672,536.534 636.791,689 862.287,689 	"/>
        <polygon id="XMLID_279_" opacity="0.4" fill="#C42C49" points="840.242,536.534 670.121,445.088
		666.496,456.345 815.675,536.534 837.721,689 862.287,689 	"/>
        <polygon id="XMLID_425_" opacity="0.4" fill="#C42C49" points="678.005,449.326 670.121,445.088
		640.672,536.534 636.791,689 646.04,689 649.921,536.534 	"/>
        <polygon id="XMLID_308_" opacity="0.41" fill="#534668" points="862.287,689 840.242,536.534
		640.672,536.534 636.791,689 	"/>
        <g id="XMLID_294_">
		<path fill="#534668" d="M862.287,692H636.791c-0.809,0-1.583-0.326-2.148-0.906c-0.564-0.579-0.871-1.361-0.851-2.17
			l3.881-152.466c0.007-0.287,0.056-0.57,0.144-0.844l29.449-91.445c0.272-0.848,0.908-1.53,1.734-1.863
			c0.825-0.333,1.757-0.281,2.541,0.14l170.122,91.446c0.838,0.45,1.412,1.271,1.548,2.213l22.045,152.466
			c0.125,0.862-0.131,1.735-0.701,2.394C863.985,691.622,863.157,692,862.287,692z M639.868,686h218.954l-21.333-147.539
			l-165.616-89.025l-28.213,87.606L639.868,686z"/>
	</g>
        <g id="XMLID_293_">
		<path fill="#534668" d="M840.242,539.534H500.849c-1.374,0-2.572-0.933-2.909-2.265c-0.336-1.332,0.274-2.722,1.483-3.375
			l169.272-91.446c0.887-0.479,1.957-0.48,2.846-0.003l170.121,91.446c1.211,0.651,1.825,2.042,1.489,3.375
			S841.617,539.534,840.242,539.534z M512.714,533.534h315.611l-158.2-85.038L512.714,533.534z"/>
	</g>
        <polygon id="XMLID_272_" fill="#534668"
                 points="565.711,536.534 550.568,689.216 593.038,689 593.038,641.889 	"/>
        <g id="XMLID_296_">
		<path fill="#534668" d="M550.567,692.216c-0.845,0-1.649-0.355-2.219-0.98c-0.571-0.628-0.851-1.47-0.767-2.315l15.144-152.682
			c0.144-1.447,1.304-2.583,2.753-2.695c1.472-0.105,2.771,0.832,3.137,2.238l27.327,105.354c0.063,0.246,0.096,0.499,0.096,0.753
			V689c0,1.651-1.334,2.991-2.984,3l-42.471,0.216C550.577,692.216,550.572,692.216,550.567,692.216z M567.034,553.585
			l-13.153,132.614l36.157-0.184v-43.744L567.034,553.585z"/>
	</g>
        <path id="XMLID_299_" fill="#FAB56A" d="M565.711,536.534c0,0,17.682,84.634,49.429,116.382
		C597.284,660.808,593.038,689,593.038,689s-11.101-22.224-18.349-62.777C571.283,607.163,565.711,536.534,565.711,536.534z"/>
        <g id="XMLID_433_" opacity="0.45">
		<path id="XMLID_451_" fill="#FAB56A" d="M567.697,545.147c-1.313-5.397-1.985-8.613-1.985-8.613s0.109,1.382,0.306,3.808
			C566.515,541.793,567.074,543.396,567.697,545.147z"/>
            <path id="XMLID_452_" fill="#FAB56A" d="M612.225,654.461c0.931-0.572,1.898-1.096,2.915-1.545
			c-0.389-0.389-0.774-0.793-1.159-1.197C613.355,652.607,612.773,653.525,612.225,654.461z"/>
            <path id="XMLID_453_" fill="#FAB56A" d="M580.399,620.356c-3.25-11.799-9.254-44.032-13.232-66.156
			c1.885,22.225,5.205,59.055,7.522,72.022C581.937,666.776,593.038,689,593.038,689s1.37-9.071,5.811-18.362
			C594.026,660.665,586.84,643.739,580.399,620.356z"/>
	</g>
        <g id="XMLID_300_">
		<path fill="#534668" d="M593.037,692c-1.123,0-2.169-0.631-2.683-1.659c-0.461-0.924-11.378-23.076-18.619-63.591
			c-3.394-18.986-8.787-87.09-9.015-89.979c-0.124-1.567,0.982-2.964,2.536-3.202c1.549-0.238,3.027,0.763,3.378,2.296
			c0.206,0.898,20.898,90.105,48.507,114.816c0.759,0.68,1.121,1.698,0.962,2.704c-0.159,1.007-0.818,1.863-1.75,2.275
			c-16.161,7.143-20.309,33.521-20.349,33.787c-0.195,1.293-1.206,2.312-2.498,2.516C593.35,691.988,593.192,692,593.037,692z
			 M571.5,569.368c1.879,21.056,4.333,46.207,6.142,56.327c4.581,25.633,10.768,43.966,14.588,53.761
			c2.576-8.489,7.857-20.766,17.908-27.238c-11.259-11.919-22.445-34.135-33.296-66.145
			C574.88,580.286,573.093,574.644,571.5,569.368z"/>
	</g>
        <g id="XMLID_303_">
		<path fill="#534668" d="M862.287,692H478.803c-0.871,0-1.698-0.378-2.268-1.036s-0.826-1.531-0.701-2.394l22.045-152.466
			c0.136-0.939,0.708-1.759,1.543-2.21l169.272-91.446c0.887-0.479,1.957-0.48,2.846-0.003l170.121,91.446
			c0.839,0.45,1.413,1.271,1.549,2.213l22.045,152.466c0.125,0.862-0.131,1.735-0.701,2.394
			C863.985,691.622,863.157,692,862.287,692z M482.268,686h376.554l-21.333-147.539l-167.364-89.965l-166.523,89.961L482.268,686z"/>
	</g>
        <g id="XMLID_302_">
		<path fill="#534668" d="M840.242,539.534H500.849c-1.374,0-2.572-0.933-2.909-2.265c-0.336-1.332,0.274-2.722,1.483-3.375
			l169.272-91.446c0.887-0.479,1.957-0.48,2.846-0.003l170.121,91.446c1.211,0.651,1.825,2.042,1.489,3.375
			S841.617,539.534,840.242,539.534z M512.714,533.534h315.611l-158.2-85.038L512.714,533.534z"/>
	</g>
</g>
    <g>
	<g id="XMLID_401_">
		<path id="XMLID_360_" fill="#A3533B" d="M288.447,689h-88c-7.732,0-14-6.268-14-14l0,0c0-7.732,6.268-14,14-14h88
			c7.732,0,14,6.268,14,14l0,0C302.447,682.732,296.179,689,288.447,689z"/>
        <g id="XMLID_422_" opacity="0.42">
			<path fill="#534668" d="M288.607,678.355c-2.866,0-5.876-1.533-7.569-2.396c-2.533-1.29-3.938-2.657-5.065-3.756
				c-1.115-1.086-1.995-1.943-3.553-2.396c-3.114-0.91-7.009,0.427-11.582,3.96c-0.219,0.17-0.532,0.129-0.701-0.09
				s-0.129-0.532,0.09-0.701c4.839-3.74,9.037-5.127,12.473-4.13c1.797,0.524,2.805,1.505,3.971,2.641
				c1.136,1.106,2.423,2.36,4.822,3.582c2.191,1.115,6.751,3.437,9.791,1.604c2.695-1.624,3.7-6.245,2.443-11.237
				c-0.067-0.268,0.095-0.539,0.363-0.607c0.269-0.062,0.54,0.096,0.607,0.363c1.385,5.501,0.221,10.459-2.896,12.338
				C290.815,678.123,289.722,678.355,288.607,678.355z"/>
		</g>
        <g id="XMLID_403_" opacity="0.42">
			<path fill="#534668" d="M232.726,682.192c-1.52,0-2.558-0.273-3.558-0.629c-2.862-1.017-5.615-3.549-8.277-5.998
				c-2.541-2.338-5.167-4.755-7.885-5.882c-0.255-0.105-0.376-0.398-0.271-0.653c0.106-0.255,0.4-0.378,0.653-0.271
				c2.882,1.195,5.575,3.673,8.18,6.069c2.708,2.491,5.265,4.844,7.935,5.793c2.727,0.967,6.045,1.271,21.557-4.25
				c0.257-0.096,0.545,0.043,0.639,0.303c0.092,0.261-0.043,0.547-0.304,0.639C240.802,681.085,235.787,682.192,232.726,682.192z"/>
		</g>
        <g id="XMLID_423_" opacity="0.42">
			<path fill="#534668" d="M233.529,687.517c-0.826,0-1.624-0.064-2.378-0.207c-0.271-0.051-0.45-0.312-0.398-0.584
				c0.052-0.271,0.317-0.448,0.584-0.398c7.389,1.395,19.802-5.408,19.927-5.478c0.241-0.132,0.545-0.047,0.68,0.195
				c0.134,0.242,0.046,0.546-0.195,0.68C251.277,681.985,241.184,687.517,233.529,687.517z"/>
		</g>
        <g id="XMLID_407_" opacity="0.42">
			<path fill="#534668" d="M267.676,689.659c-4,0-8.586-0.491-10.731-2.484c-0.832-0.773-1.254-1.719-1.254-2.811
				c0-4.723,11.354-8.347,12.741-8.771c5.523-2.131,9.017,1.387,12.716,5.11l0.62,0.622c1.514,1.514,1.472,2.801,1.169,3.614
				c-1.056,2.84-6.628,4.231-11.079,4.56C270.666,689.587,269.214,689.659,267.676,689.659z M271.641,675.955
				c-0.891,0-1.839,0.179-2.865,0.576c-0.011,0.005-0.023,0.009-0.035,0.013c-3.352,1.024-12.051,4.426-12.051,7.82
				c0,0.813,0.306,1.493,0.935,2.078c1.967,1.826,7.127,2.582,14.16,2.059c5.304-0.391,9.504-1.999,10.215-3.91
				c0.291-0.783-0.025-1.645-0.939-2.559l-0.622-0.625C277.576,678.526,275.022,675.955,271.641,675.955z M268.595,676.065h0.01
				H268.595z"/>
		</g>
        <g id="XMLID_409_" opacity="0.46">
			<path fill="#A3533B" d="M194.924,684.981c-2.516,0-5.409-0.391-7.104-1.916c-0.961-0.865-1.449-2.002-1.449-3.377
				c0-4.712,8.364-8.484,8.963-8.749c4.045-2.222,6.651,1.528,9.173,5.154l0.434,0.621c1.235,1.764,1.008,3.201,0.6,4.096
				c-0.945,2.075-3.886,3.611-7.673,4.01C197.046,684.907,196.021,684.981,194.924,684.981z M197.667,671.292
				c-0.584,0-1.203,0.166-1.868,0.534c-0.014,0.008-0.028,0.015-0.042,0.021c-0.084,0.037-8.385,3.71-8.385,7.842
				c0,1.095,0.366,1.957,1.118,2.634c2.145,1.932,6.731,1.771,9.274,1.504c3.385-0.356,6.081-1.703,6.868-3.43
				c0.436-0.957,0.265-2.003-0.509-3.107l-0.435-0.625C201.712,673.824,199.951,671.292,197.667,671.292z M195.557,671.389h0.01
				H195.557z"/>
		</g>
        <g id="XMLID_411_" opacity="0.42">
			<path fill="#534668" d="M215.835,686.177c-1.227,0-2.515-0.208-3.31-0.924c-0.488-0.439-0.735-1.013-0.735-1.705
				c0-2.229,3.616-3.902,4.13-4.13c2.003-1.091,3.288,0.75,4.418,2.376l0.192,0.275c0.623,0.89,0.502,1.629,0.291,2.092
				c-0.459,1.009-1.85,1.753-3.627,1.939C216.773,686.146,216.309,686.176,215.835,686.177z M217.089,680.097
				c-0.221,0-0.452,0.068-0.704,0.208c-0.014,0.008-0.028,0.015-0.042,0.021c-0.921,0.403-3.552,1.86-3.552,3.223
				c0,0.402,0.132,0.717,0.404,0.962c0.637,0.573,2.059,0.788,3.897,0.597c1.383-0.146,2.518-0.692,2.822-1.36
				c0.151-0.333,0.086-0.693-0.201-1.103l-0.194-0.278C218.494,680.892,217.845,680.097,217.089,680.097z M216.143,679.867h0.01
				H216.143z"/>
		</g>
        <g id="XMLID_417_" opacity="0.42">
			<path fill="#534668" d="M233.876,678.034c-0.182,0-0.358-0.006-0.53-0.018c-1.992-0.14-5.318-0.656-5.318-2.555
				c0-2.132,3.312-3.758,4.047-4.093c0.839-0.947,3.532-3.571,7.379-3.316c2.984,0.193,6.534,2.169,6.465,4.332
				c-0.065,2.054-3.219,3.207-6.871,4.543C237.038,677.663,235.301,678.034,233.876,678.034z M238.955,669.036
				c-3.375,0-5.741,2.542-6.196,3.071c-0.049,0.057-0.11,0.102-0.179,0.132c-0.921,0.403-3.552,1.86-3.552,3.223
				c0,0.724,1.841,1.379,4.378,1.557c1.718,0.112,3.832-0.493,5.299-1.03c3.034-1.109,6.172-2.257,6.216-3.635
				c0.044-1.4-2.851-3.129-5.531-3.303C239.244,669.041,239.099,669.036,238.955,669.036z M232.38,671.781h0.01H232.38z"/>
		</g>
        <g id="XMLID_420_" opacity="0.42">
			<path fill="#534668" d="M273.862,688.068c-0.984,0-2.12-0.169-3.375-0.355l-0.345-0.052c-3.017-0.445-7.577-1.119-7.577-3.617
				c0-3.377,5.992-6.03,6.248-6.142c0.036-0.017,0.075-0.027,0.114-0.034c0.176-0.032,4.306-0.712,6.832,2.224
				c1.684,1.957,2.479,5.209,0.979,6.931C276.05,687.813,275.071,688.068,273.862,688.068z M269.157,678.844
				c-1.61,0.716-5.59,2.965-5.59,5.2c0,1.635,4.373,2.281,6.723,2.628l0.345,0.052c2.59,0.386,4.461,0.665,5.351-0.357
				c1.109-1.274,0.396-4.02-0.983-5.622C272.962,678.375,269.649,678.771,269.157,678.844z"/>
		</g>
        <g id="XMLID_408_" opacity="0.42">
			<path fill="#534668" d="M268.972,686.485c-0.973,0-1.998-0.166-2.638-0.742c-0.396-0.356-0.605-0.842-0.605-1.402
				c0-1.787,2.834-3.107,3.256-3.294c1.641-0.89,2.703,0.643,3.559,1.874l0.148,0.212c0.513,0.732,0.411,1.345,0.235,1.729
				c-0.372,0.817-1.481,1.416-2.895,1.564C269.702,686.462,269.341,686.485,268.972,686.485z M269.928,681.793
				c-0.152,0-0.31,0.046-0.479,0.141c-0.014,0.008-0.028,0.015-0.042,0.021c-1.035,0.453-2.678,1.502-2.678,2.387
				c0,0.281,0.087,0.49,0.275,0.659c0.468,0.422,1.535,0.58,2.924,0.433c1.015-0.106,1.874-0.512,2.09-0.984
				c0.036-0.08,0.147-0.324-0.145-0.741l-0.15-0.215C270.954,682.386,270.473,681.793,269.928,681.793z M269.206,681.496h0.01
				H269.206z"/>
		</g>
        <g id="XMLID_291_">
			<path fill="#534668" d="M288.447,692h-88c-9.374,0-17-7.626-17-17s7.626-17,17-17h88c9.374,0,17,7.626,17,17
				S297.821,692,288.447,692z M200.447,664c-6.065,0-11,4.935-11,11s4.935,11,11,11h88c6.065,0,11-4.935,11-11s-4.935-11-11-11
				H200.447z"/>
		</g>
	</g>
        <g id="XMLID_306_">
		<path fill="#534668" d="M168.123,692c-1.657,0-3-1.343-3-3V531.331c0-1.657,1.343-3,3-3s3,1.343,3,3V689
			C171.123,690.657,169.779,692,168.123,692z"/>
	</g>
        <g id="XMLID_307_">
		<path fill="#534668" d="M168.123,534.331c-3.125,0-6.058-1.701-7.846-4.55l-9.861-15.712c-0.881-1.403-0.457-3.255,0.946-4.136
			c1.403-0.88,3.255-0.458,4.136,0.946l9.861,15.712c0.694,1.105,1.701,1.739,2.764,1.739c1.062,0,2.069-0.634,2.763-1.739
			l9.861-15.712c0.881-1.404,2.732-1.826,4.136-0.946c1.403,0.881,1.827,2.732,0.946,4.136l-9.861,15.712
			C174.18,532.63,171.247,534.331,168.123,534.331z"/>
	</g>
        <g id="XMLID_315_">
		<path fill="#534668" d="M324,692c-1.657,0-3-1.343-3-3V531.331c0-1.657,1.343-3,3-3s3,1.343,3,3V689
			C327,690.657,325.657,692,324,692z"/>
	</g>
        <g id="XMLID_313_">
		<path fill="#534668" d="M324,534.331c-3.125,0-6.058-1.701-7.846-4.55l-9.861-15.712c-0.881-1.403-0.457-3.255,0.946-4.136
			c1.404-0.88,3.255-0.458,4.136,0.946l9.861,15.712c0.694,1.105,1.701,1.739,2.764,1.739s2.069-0.634,2.763-1.739l9.862-15.712
			c0.881-1.404,2.732-1.829,4.136-0.946c1.403,0.881,1.827,2.732,0.946,4.136l-9.862,15.712
			C330.057,532.63,327.125,534.331,324,534.331z"/>
	</g>
        <g id="XMLID_318_">
		<path fill="#534668" d="M339.166,529H152.957c-2.209,0-4-1.791-4-4s1.791-4,4-4h186.209c2.209,0,4,1.791,4,4
			S341.375,529,339.166,529z"/>
	</g>
        <path id="XMLID_319_" fill="#FFB839" d="M224.238,636.779c2.85,4.62,3.831,4.791,3.444,13.751
		c-0.757,17.53,7.322,25.712,16.962,28.216c11.486,2.984,17.085-0.388,21.918-4.702c19.456-17.367,2.696-40.1,0.878-41.723
		c0,6.852-0.488,16.522-5.049,17.818c3.03-13.222-7.743-26.79-17.944-30.881c5.613,13.39-3.282,19.202,0.778,35.1
		C242.649,643.618,228.391,637.445,224.238,636.779z"/>
        <path id="XMLID_368_" opacity="0.47" fill="#ED4307" d="M231.19,645.435
		c2.242,3.635,3.014,3.769,2.71,10.819c-0.595,13.792,5.761,20.229,13.346,22.2c9.037,2.347,13.443-0.305,17.245-3.699
		c15.307-13.664,2.121-31.55,0.691-32.827c0,5.391-0.384,13-3.973,14.019c2.384-10.403-6.092-21.078-14.118-24.297
		c4.416,10.535-2.582,15.108,0.612,27.617C245.675,650.817,234.457,645.96,231.19,645.435z"/>
        <path id="XMLID_371_" opacity="0.47" fill="#FF4729" d="M230.634,649.568
		c2.242,3.635-0.534,9.25,2.63,15.557c6.523,13.003,6.397,11.359,13.982,13.33c9.037,2.347,13.443-0.305,17.245-3.699
		c15.307-13.664,2.121-31.55,0.691-32.827c0,5.391-0.384,13-3.973,14.019c2.384-10.403-3.122-21.078-11.149-24.297
		c2.051,9.223-5.552,15.108-2.357,27.617C245.675,650.817,233.901,650.092,230.634,649.568z"/>
        <path id="XMLID_382_" opacity="0.46" fill="#FFB839" d="M250.414,675.809
		c-6.44-1.402-11.15-6.856-10.768-15.713c0.053-1.22,0.07-2.254,0.05-3.153c2.322,1.611,10.043,7.102,10.718,9.673v-2.471
		c-1.104-4.468,0.803-10.122,1.448-13.358c0.302-1.516,0.62-3.114,0.743-4.852c3.128,3.455,6.793,10.953,6.793,15.52l-0.226,3.256
		c0,0,0.675-1.049,2.078-1.634c1.403-0.585,3.534-2.128,4.446-4.182c0.317,1.397,0.493,2.878,0.429,4.386
		c-0.169,3.967-1.9,7.369-5.294,10.398C258.585,675.685,253.744,676.534,250.414,675.809z"/>
        <path id="XMLID_343_" fill="#FFFFFF" d="M212.083,574.498c1.568,15.511,16.178,30.668,33.978,30.668s32.41-15.157,33.978-30.668
		L212.083,574.498L212.083,574.498z"/>
        <path id="XMLID_457_" fill="#B2B2B2" d="M222.213,574.498h-10.129c1.568,15.511,16.178,30.668,33.978,30.668
		c1.721,0,3.412-0.145,5.065-0.415C235.688,602.227,223.629,588.509,222.213,574.498z"/>
        <g id="XMLID_325_">
		<path fill="#534668" d="M246.061,608.166c-20.092,0-35.333-17.253-36.962-33.366c-0.085-0.844,0.19-1.685,0.759-2.313
			s1.377-0.988,2.226-0.988h67.956c0.848,0,1.657,0.359,2.226,0.988s0.845,1.47,0.759,2.313
			C281.395,590.913,266.153,608.166,246.061,608.166z M215.623,577.498c2.914,12.459,14.959,24.668,30.438,24.668
			s27.524-12.209,30.438-24.668L215.623,577.498L215.623,577.498z"/>
	</g>
        <ellipse id="XMLID_339_" fill="#FAB56A" cx="246.061" cy="574.498" rx="33.978" ry="4.244"/>
        <g id="XMLID_305_">
		<path fill="#534668" d="M246.061,581.741c-9.196,0-17.861-0.449-24.397-1.266c-7.967-0.995-12.58-2.292-12.58-5.978
			s4.613-4.982,12.58-5.978c6.537-0.816,15.201-1.266,24.397-1.266s17.861,0.449,24.398,1.266c7.967,0.995,12.58,2.292,12.58,5.978
			s-4.613,4.982-12.58,5.978C263.922,581.292,255.257,581.741,246.061,581.741z M277.793,576.208h0.01H277.793z M222.29,574.498
			c5.374,0.68,13.351,1.243,23.771,1.243s18.398-0.563,23.772-1.243c-5.374-0.68-13.352-1.243-23.772-1.243
			S227.664,573.818,222.29,574.498z"/>
	</g>
        <g id="XMLID_322_">
		<path fill="#534668" d="M212.083,581.807c-4.03,0-7.309-3.278-7.309-7.309s3.279-7.309,7.309-7.309s7.309,3.278,7.309,7.309
			S216.113,581.807,212.083,581.807z M212.083,573.189c-0.722,0-1.309,0.587-1.309,1.309s0.587,1.309,1.309,1.309
			s1.309-0.587,1.309-1.309S212.805,573.189,212.083,573.189z"/>
	</g>
        <g id="XMLID_329_">
		<path fill="#534668" d="M280.039,581.807c-4.03,0-7.309-3.278-7.309-7.309s3.279-7.309,7.309-7.309s7.309,3.278,7.309,7.309
			S284.069,581.807,280.039,581.807z M280.039,573.189c-0.722,0-1.309,0.587-1.309,1.309s0.587,1.309,1.309,1.309
			s1.309-0.587,1.309-1.309S280.761,573.189,280.039,573.189z"/>
	</g>
        <g id="XMLID_324_">
		<path fill="#534668" d="M280.939,572.189c-0.114,0-0.23-0.01-0.347-0.03c-1.088-0.189-1.816-1.226-1.626-2.314
			c0.881-5.039,0.895-12.279-4.04-18.151c-5.34-6.354-15.051-9.575-28.865-9.575s-23.525,3.222-28.865,9.575
			c-4.935,5.873-4.92,13.112-4.04,18.151c0.19,1.089-0.538,2.125-1.626,2.314c-1.087,0.191-2.124-0.537-2.314-1.625
			c-1.473-8.428,0.228-15.832,4.918-21.414c6.135-7.301,16.877-11.002,31.927-11.002s25.792,3.701,31.927,11.002
			c4.69,5.581,6.392,12.986,4.918,21.414C282.737,571.505,281.893,572.189,280.939,572.189z"/>
	</g>
        <g id="XMLID_345_">
		<g id="XMLID_344_">
			<path fill="#534668" d="M246.738,531.951c-4.302,0-7.802-3.5-7.802-7.803c0-4.302,3.5-7.802,7.802-7.802s7.802,3.5,7.802,7.802
				C254.541,528.451,251.041,531.951,246.738,531.951z M246.738,522.347c-0.994,0-1.802,0.809-1.802,1.802
				c0,0.994,0.809,1.803,1.802,1.803s1.802-0.809,1.802-1.803C248.541,523.155,247.732,522.347,246.738,522.347z"/>
		</g>
            <g id="XMLID_346_">
			<path fill="#534668" d="M241.936,531.951c-4.302,0-7.802-3.5-7.802-7.803c0-4.302,3.5-7.802,7.802-7.802s7.802,3.5,7.802,7.802
				C249.738,528.451,246.238,531.951,241.936,531.951z M241.936,522.347c-0.994,0-1.802,0.809-1.802,1.802
				c0,0.994,0.809,1.803,1.802,1.803s1.802-0.809,1.802-1.803S242.93,522.347,241.936,522.347z"/>
		</g>
	</g>
        <g id="XMLID_357_">
		<path fill="#534668" d="M247.253,545.015c-2.65,0-4.806-2.156-4.806-4.807c0-2.649,2.156-4.806,4.806-4.806
			s4.807,2.156,4.807,4.806C252.06,542.858,249.903,545.015,247.253,545.015z M247.253,539.402c-0.444,0-0.806,0.361-0.806,0.806
			s0.362,0.807,0.806,0.807c0.445,0,0.807-0.362,0.807-0.807S247.698,539.402,247.253,539.402z"/>
	</g>
        <g id="XMLID_355_">
		<path fill="#534668" d="M243.255,545.015c-2.65,0-4.806-2.156-4.806-4.807c0-2.649,2.156-4.806,4.806-4.806
			s4.806,2.156,4.806,4.806C248.061,542.858,245.905,545.015,243.255,545.015z M243.255,539.402c-0.444,0-0.806,0.361-0.806,0.806
			s0.362,0.807,0.806,0.807s0.806-0.362,0.806-0.807S243.699,539.402,243.255,539.402z"/>
	</g>
        <g id="XMLID_352_">
		<path fill="#534668" d="M243.255,550.584c-1.104,0-2-0.896-2-2l-0.008-0.15c-0.065-1.037-0.022-2.349,1.324-4.799
			c0.72-1.31,0.859-4.001,0.782-5.665c-2.7-5.295,0.785-12.015,0.939-12.306c0.516-0.977,1.726-1.351,2.703-0.834
			c0.975,0.516,1.349,1.724,0.835,2.699c-0.784,1.502-2.454,6.018-0.784,8.86c0.153,0.261,0.246,0.554,0.269,0.855
			c0.043,0.542,0.372,5.385-1.239,8.315c-0.9,1.639-0.864,2.207-0.838,2.622c0.009,0.144,0.016,0.276,0.016,0.401
			C245.255,549.688,244.359,550.584,243.255,550.584z"/>
	</g>
        <circle id="XMLID_363_" fill="#B75A44" cx="200.447" cy="675" r="14"/>
        <g id="XMLID_358_">
		<path fill="#534668" d="M200.447,692c-9.374,0-17-7.626-17-17s7.626-17,17-17s17,7.626,17,17S209.821,692,200.447,692z
			 M200.447,664c-6.065,0-11,4.935-11,11s4.935,11,11,11s11-4.935,11-11S206.512,664,200.447,664z"/>
	</g>
        <g id="XMLID_365_" opacity="0.61">
		<path fill="#534668" d="M200.08,683.136c-3.631,0-6.585-3.475-6.585-7.745c0-4.271,2.954-7.746,6.585-7.746
			s6.586,3.475,6.586,7.746c0,1.648-0.433,3.221-1.252,4.547c-0.145,0.235-0.453,0.306-0.688,0.163
			c-0.235-0.146-0.308-0.453-0.163-0.688c0.722-1.168,1.103-2.559,1.103-4.021c0-3.72-2.506-6.746-5.586-6.746
			s-5.585,3.026-5.585,6.746s2.506,6.745,5.585,6.745c0.966,0,1.917-0.303,2.753-0.876c0.228-0.155,0.539-0.098,0.695,0.129
			c0.156,0.228,0.099,0.539-0.129,0.695C202.396,682.772,201.249,683.136,200.08,683.136z"/>
	</g>
        <g id="XMLID_366_" opacity="0.61">
		<path fill="#534668" d="M200.08,679.846c-2.25,0-4.082-2.146-4.082-4.782c0-2.638,1.831-4.783,4.082-4.783
			c2.258,0,4.594,1.598,4.594,4.271C204.674,677.174,202.356,679.846,200.08,679.846z M200.08,671.28
			c-1.699,0-3.082,1.697-3.082,3.783s1.382,3.782,3.082,3.782c1.713,0,3.594-2.248,3.594-4.295S201.847,671.28,200.08,671.28z"/>
	</g>
        <g id="XMLID_367_" opacity="0.61">
		<path fill="#534668" d="M200.08,676.514c-1.042,0-1.889-0.881-1.889-1.963s0.848-1.963,1.889-1.963
			c0.578-0.037,1.701,0.185,2.054,1.174c0.093,0.26-0.042,0.546-0.303,0.639c-0.261,0.095-0.546-0.043-0.639-0.303
			c-0.192-0.539-1.078-0.508-1.09-0.511c-0.512,0.001-0.911,0.433-0.911,0.964s0.399,0.963,0.889,0.963c0.276,0,0.5,0.224,0.5,0.5
			S200.356,676.514,200.08,676.514z"/>
	</g>
</g>
</svg>
