<?xml version="1.0" encoding="UTF-8"?>
<svg xmlns="http://www.w3.org/2000/svg" viewBox="0 0 1000 1000" x="0px" y="0px" width="1000px" height="1000px"
     xmlns:xlink="http://www.w3.org/1999/xlink" version="1.1">
    <g style="isolation:isolate">
        <g id="Layer_1">
            <g opacity="0.4" style="mix-blend-mode:soft-light">
                <path
                    d="M852.132,480.9H781.757L746.57,419.91l35.187-60.989h70.375l35.186,60.989Zm-66.91-6h63.445l31.724-54.989-31.724-54.989H785.222L753.5,419.91Z"
                    fill="#6bbfff"/>
                <polygon
                    points="736.154 292.011 665.779 292.011 630.593 353 665.779 413.989 736.154 413.989 771.341 353 736.154 292.011"
                    fill="#6bbfff"/>
                <path
                    d="M736.154,280.168H665.779L630.593,219.18l35.186-60.989h70.375l35.187,60.989Zm-66.91-6h63.445l31.724-54.988-31.724-54.989H669.244L637.521,219.18Z"
                    fill="#6bbfff"/>
                <path
                    d="M620.177,480.9H549.8L514.615,419.91,549.8,358.921h70.375l35.186,60.989Zm-66.91-6h63.445l31.724-54.989-31.724-54.989H553.267L521.543,419.91Z"
                    fill="#6bbfff"/>
                <polygon
                    points="620.177 225.101 549.802 225.101 514.615 286.09 549.802 347.079 620.177 347.079 655.363 286.09 620.177 225.101"
                    fill="#6bbfff"/>
                <polygon
                    points="474.198 445.832 403.823 445.832 368.638 506.82 403.823 567.81 474.198 567.81 509.385 506.82 474.198 445.832"
                    fill="#6bbfff"/>
                <path
                    d="M504.2,413.989H433.823L398.638,353l35.185-60.989H504.2L539.385,353Zm-66.909-6h63.444L532.457,353l-31.724-54.989H437.289L405.564,353Z"
                    fill="#6bbfff"/>
                <path
                    d="M504.2,280.168H433.823L398.638,219.18l35.185-60.989H504.2l35.187,60.989Zm-66.909-6h63.444l31.724-54.988-31.724-54.989H437.289L405.564,219.18Z"
                    fill="#6bbfff"/>
                <polygon
                    points="388.222 225.101 317.845 225.101 282.66 286.09 317.845 347.079 388.222 347.079 423.407 286.09 388.222 225.101"
                    fill="#6bbfff"/>
                <polygon
                    points="272.244 425.832 201.868 425.832 166.682 486.82 201.868 547.81 272.244 547.81 307.429 486.82 272.244 425.832"
                    fill="#6bbfff"/>
                <path
                    d="M272.244,413.989H201.868L166.682,353l35.186-60.989h70.376L307.429,353Zm-66.911-6h63.445L300.5,353l-31.724-54.989H205.333L173.609,353Z"
                    fill="#6bbfff"/>
            </g>
            <path d="M875,728H125a4,4,0,0,1,0-8H875a4,4,0,0,1,0,8Z" fill="#3f2975"/>
            <path
                d="M571.363,707A74.525,74.525,0,0,0,547,689.614V328.867l11.506-19.945A13.283,13.283,0,0,0,547,289H468.284A13.283,13.283,0,0,0,455,302.284V689.613c-10,4.524-18.609,10.452-25.03,17.387h-.333A8.637,8.637,0,0,0,421,715.637V723H580v-7.363A8.637,8.637,0,0,0,571.363,707Z"
                fill="#fff"/>
            <path
                d="M579,727H420a3,3,0,0,1-3-3v-6.363a12.656,12.656,0,0,1,11.622-12.6c4.977-5.331,12.4-12.416,22.378-17.327V302.829A15.847,15.847,0,0,1,466.829,287H547a15.831,15.831,0,0,1,13.469,24.146l-10.488,16.982a6.591,6.591,0,0,0-.981,3.458V687.7a76.679,76.679,0,0,1,22.736,16.379A11.655,11.655,0,0,1,582,715.637V724A3,3,0,0,1,579,727Zm-156-6H576v-5.363A5.642,5.642,0,0,0,570.363,710a3,3,0,0,1-2.2-.962,71.178,71.178,0,0,0-23.4-16.691A3,3,0,0,1,543,689.613V331.586a12.571,12.571,0,0,1,1.876-6.609l10.487-16.983A9.829,9.829,0,0,0,547,293H466.829A9.84,9.84,0,0,0,457,302.829V689.613a3,3,0,0,1-1.764,2.734c-8.081,3.655-15.192,9.108-23.055,17.681a3,3,0,0,1-2.211.972h-.333A6.645,6.645,0,0,0,423,717.637Z"
                fill="#3f2975"/>
            <path
                d="M541.23,702.369,533,698.646V415h-.167a19.163,19.163,0,0,0-37.534-5.454A9.573,9.573,0,0,0,480.862,415H469V698.646l-8.23,3.723A74.011,74.011,0,0,0,449,709H552.678A63.568,63.568,0,0,0,541.23,702.369Z"
                fill="#ec1ce4"/>
            <path
                d="M552.678,712H449a3,3,0,0,1-1.715-5.462,76.981,76.981,0,0,1,12.253-6.9L466,696.711V415a3,3,0,0,1,3-3h9.815a12.581,12.581,0,0,1,14.828-6.488,22.16,22.16,0,0,1,42.165,8.43A2.992,2.992,0,0,1,536,415V696.711l6.467,2.925h0a66.117,66.117,0,0,1,11.984,6.944,3,3,0,0,1-1.773,5.42Zm-92.587-6H541.9q-.936-.459-1.906-.9l-8.23-3.723A3,3,0,0,1,530,698.646V415.989a2.993,2.993,0,0,1-.167-.989,16.163,16.163,0,0,0-31.659-4.6,3,3,0,0,1-4.514,1.66A6.532,6.532,0,0,0,490.083,411a6.6,6.6,0,0,0-6.332,4.808A3,3,0,0,1,480.862,418H472V698.646a3,3,0,0,1-1.764,2.734l-8.23,3.723Q461.037,705.541,460.091,706Z"
                fill="#3f2975"/>
            <circle cx="487.5" cy="355.5" r="9.5" fill="#ec1ce4"/>
            <path
                d="M487.5,368A12.5,12.5,0,1,1,500,355.5,12.514,12.514,0,0,1,487.5,368Zm0-19a6.5,6.5,0,1,0,6.5,6.5A6.508,6.508,0,0,0,487.5,349Z"
                fill="#3f2975"/>
            <circle cx="497.5" cy="254.5" r="16.5" fill="#ec1ce4"/>
            <path
                d="M497.5,274A19.5,19.5,0,1,1,517,254.5,19.523,19.523,0,0,1,497.5,274Zm0-33A13.5,13.5,0,1,0,511,254.5,13.515,13.515,0,0,0,497.5,241Z"
                fill="#3f2975"/>
            <circle cx="518.5" cy="219.5" r="6.421" fill="#ec1ce4"/>
            <path
                d="M518.5,228.921a9.421,9.421,0,1,1,9.421-9.421A9.432,9.432,0,0,1,518.5,228.921Zm0-12.842a3.421,3.421,0,1,0,3.421,3.421A3.424,3.424,0,0,0,518.5,216.079Z"
                fill="#3f2975"/>
            <circle cx="515.5" cy="331.5" r="4" fill="#ec1ce4"/>
            <path d="M515.5,338.5a7,7,0,1,1,7-7A7.008,7.008,0,0,1,515.5,338.5Zm0-8a1,1,0,1,0,1,1A1,1,0,0,0,515.5,330.5Z"
                  fill="#3f2975"/>
            <circle cx="502.812" cy="509.813" r="3.187" fill="#3f2975"/>
            <circle cx="497.578" cy="555.578" r="9.953" fill="#3f2975"/>
            <circle cx="510.578" cy="606.578" r="4.422" fill="#3f2975"/>
            <path
                d="M408,528.343V378H354V528.343c-47,12.037-82.5,55.722-82.5,107.157,0,35.984,17.78,67.5,44.494,88.5H448.006c26.714-21,43.494-52.516,43.494-88.5A110.728,110.728,0,0,0,408,528.343Z"
                fill="#fff"/>
            <path
                d="M448.006,727H315.994a3,3,0,0,1-1.854-.642c-29-22.8-45.64-55.918-45.64-90.858a114.481,114.481,0,0,1,24.262-70.2A113.159,113.159,0,0,1,351,526.042V378a3,3,0,0,1,3-3h54a3,3,0,0,1,3,3V526.029A113.743,113.743,0,0,1,494.5,635.5c0,35.44-16.271,68.557-44.64,90.858A3,3,0,0,1,448.006,727Zm-130.967-6H446.961c26.412-21.146,41.539-52.251,41.539-85.5A106.372,106.372,0,0,0,465.4,569.006a107.939,107.939,0,0,0-58.124-37.752,3,3,0,0,1-2.271-2.91V381H357V528.344a3,3,0,0,1-2.256,2.906A106.969,106.969,0,0,0,297.488,569,108.46,108.46,0,0,0,274.5,635.5C274.5,668.263,289.99,699.368,317.039,721Z"
                fill="#3f2975"/>
            <path
                d="M469.3,595H442.625a10.823,10.823,0,0,0-21.583,0H419.95a18.968,18.968,0,0,0-27.782-15.815,26.668,26.668,0,0,0-51.261,3.3A15.473,15.473,0,0,0,317.025,595H294.7a96.784,96.784,0,0,0-8.7,40,95.5,95.5,0,0,0,34.839,74H443.161A95.5,95.5,0,0,0,478,635,96.784,96.784,0,0,0,469.3,595Z"
                fill="#ff5959"/>
            <path
                d="M443.161,712H320.839a3,3,0,0,1-1.91-.687A98.625,98.625,0,0,1,283,635a100.02,100.02,0,0,1,8.975-41.246A3,3,0,0,1,294.7,592h19.64A18.477,18.477,0,0,1,339,578.185a29.67,29.67,0,0,1,54.776-2.959,21.962,21.962,0,0,1,27.34,11.9,13.8,13.8,0,0,1,24,4.876H469.3a3,3,0,0,1,2.729,1.754A100.02,100.02,0,0,1,481,635a98.625,98.625,0,0,1-35.929,76.313A3,3,0,0,1,443.161,712Zm-121.234-6H442.073A92.634,92.634,0,0,0,475,635a94.019,94.019,0,0,0-7.654-37H442.625a3,3,0,0,1-2.992-2.771,7.823,7.823,0,0,0-15.6,0A3,3,0,0,1,421.042,598H419.95a3,3,0,0,1-3-2.844A15.978,15.978,0,0,0,401,580a15.812,15.812,0,0,0-7.435,1.84,3,3,0,0,1-4.228-1.663,23.668,23.668,0,0,0-45.494,2.929,3,3,0,0,1-4.566,1.9A12.472,12.472,0,0,0,320.024,595.1a3,3,0,0,1-3,2.9H296.654A94.019,94.019,0,0,0,289,635,92.634,92.634,0,0,0,321.927,706Z"
                fill="#3f2975"/>
            <path
                d="M342.212,600.85a3,3,0,0,1-2.789-1.893A29.674,29.674,0,1,1,395.007,578.2a3,3,0,0,1-5.663,1.983A23.673,23.673,0,1,0,345,596.74a3,3,0,0,1-2.787,4.11Z"
                fill="#3f2975"/>
            <path
                d="M420,599a3,3,0,0,1-3-3,16,16,0,0,0-30.757-6.2,3,3,0,0,1-5.531-2.326A22,22,0,0,1,423,596,3,3,0,0,1,420,599Z"
                fill="#3f2975"/>
            <path
                d="M442.667,598.833a3,3,0,0,1-3-3,7.834,7.834,0,0,0-15.667,0,3,3,0,0,1-6,0,13.834,13.834,0,0,1,27.667,0A3,3,0,0,1,442.667,598.833Z"
                fill="#3f2975"/>
            <rect x="362.5" y="339" width="37" height="62" fill="#d29c5e"/>
            <path
                d="M399.5,404h-37a3,3,0,0,1-3-3V339a3,3,0,0,1,3-3h37a3,3,0,0,1,3,3v62A3,3,0,0,1,399.5,404Zm-34-6h31V342h-31Z"
                fill="#3f2975"/>
            <rect x="339.5" y="353" width="84" height="24" rx="12" fill="#d9d6e5"/>
            <path d="M411.5,380h-60a15,15,0,0,1,0-30h60a15,15,0,0,1,0,30Zm-60-24a9,9,0,0,0,0,18h60a9,9,0,0,0,0-18Z"
                  fill="#3f2975"/>
            <circle cx="396.75" cy="546.917" r="12.25" fill="#ff5959"/>
            <circle cx="384.037" cy="443.204" r="5.537" fill="#ff5959"/>
            <circle cx="373.466" cy="482.632" r="6.966" fill="#ff5959"/>
            <path
                d="M396.75,562.167A15.25,15.25,0,1,1,412,546.917,15.267,15.267,0,0,1,396.75,562.167Zm0-24.5a9.25,9.25,0,1,0,9.25,9.25A9.26,9.26,0,0,0,396.75,537.667Z"
                fill="#3f2975"/>
            <path
                d="M384.037,450.167A6.964,6.964,0,1,1,391,443.2,6.971,6.971,0,0,1,384.037,450.167Zm0-7.927a.964.964,0,1,0,.963.964A.964.964,0,0,0,384.037,442.24Z"
                fill="#3f2975"/>
            <path
                d="M373.465,492.6a9.966,9.966,0,1,1,9.966-9.966A9.977,9.977,0,0,1,373.465,492.6Zm0-13.931a3.966,3.966,0,1,0,3.966,3.965A3.97,3.97,0,0,0,373.465,478.667Z"
                fill="#3f2975"/>
            <circle cx="434.305" cy="561.638" r="3.029" fill="#ff5959"/>
            <path
                d="M434.305,567.167a5.529,5.529,0,1,1,5.528-5.529A5.535,5.535,0,0,1,434.305,567.167Zm0-6.058a.529.529,0,1,0,.528.529A.53.53,0,0,0,434.305,561.109Z"
                fill="#3f2975"/>
            <path
                d="M416.305,573.933a3.3,3.3,0,1,1,3.3-3.295A3.3,3.3,0,0,1,416.305,573.933Zm0-5a1.7,1.7,0,1,0,1.7,1.705A1.706,1.706,0,0,0,416.305,568.933Z"
                fill="#3f2975"/>
            <circle cx="361" cy="660" r="3" fill="#3f2975"/>
            <circle cx="383" cy="684" r="6.375" fill="#3f2975"/>
            <circle cx="392" cy="649" r="3" fill="#3f2975"/>
            <circle cx="413" cy="681" r="3.375" fill="#3f2975"/>
            <rect x="566.333" y="403" width="87.333" height="24" rx="12" fill="#d9d6e5"/>
            <path
                d="M641.667,430H578.333a15,15,0,0,1,0-30h63.334a15,15,0,0,1,0,30Zm-63.334-24a9,9,0,0,0,0,18h63.334a9,9,0,0,0,0-18Z"
                fill="#3f2975"/>
            <path
                d="M637,555V427H583V555L495.372,692.256c-8.48,13.314.875,30.744,16.66,30.744h195.1c15.786,0,25.558-17.43,17.078-30.744Z"
                fill="#fff"/>
            <path
                d="M707.132,726h-195.1a22.5,22.5,0,0,1-19.994-11.816,22.817,22.817,0,0,1,.8-23.539L580,554.124V427a3,3,0,0,1,3-3h54a3,3,0,0,1,3,3V554.128l86.742,136.519a22.585,22.585,0,0,1,.726,23.3A22.9,22.9,0,0,1,707.132,726ZM586,430V555a3,3,0,0,1-.472,1.614L497.9,693.87a16.9,16.9,0,0,0-.6,17.428,16.578,16.578,0,0,0,14.734,8.7h195.1a16.981,16.981,0,0,0,15.075-8.942,16.661,16.661,0,0,0-.527-17.191L634.468,556.608A2.993,2.993,0,0,1,634,555V430Z"
                fill="#3f2975"/>
            <path
                d="M712.4,699.73l-35.186-55.414c-3.706-8.753-11.718-14.816-21.009-14.816a21.5,21.5,0,0,0-12.827,4.294A22,22,0,0,0,627.2,626.5c-8.819,0-16.488,5.46-20.414,13.5h-4.218a21.61,21.61,0,0,0-32.735,0h-1.763a21.193,21.193,0,0,1-21.74,0h-1.045l-38.107,59.735a5.924,5.924,0,0,0-.409,6.129,5.812,5.812,0,0,0,5.26,3.136h195.1a5.948,5.948,0,0,0,5.365-3.114A5.779,5.779,0,0,0,712.4,699.73Z"
                fill="#0cf9c3"/>
            <path
                d="M707.132,712h-195.1a8.78,8.78,0,0,1-7.889-4.692,8.9,8.9,0,0,1,.507-9.185l38.109-59.736A3,3,0,0,1,545.288,637h1.045a3,3,0,0,1,1.523.416,18.2,18.2,0,0,0,18.694,0,3,3,0,0,1,1.523-.416h.476a24.528,24.528,0,0,1,35.308,0h1.125c4.774-8.375,13.133-13.5,22.221-13.5a24.642,24.642,0,0,1,16.542,6.452A24.29,24.29,0,0,1,656.2,626.5c10.08,0,19.346,6.434,23.671,16.411l35.057,55.211a8.7,8.7,0,0,1,.195,9.208A8.968,8.968,0,0,1,707.132,712ZM546.589,643.539l-36.879,57.81a2.923,2.923,0,0,0-.309,3.071,2.789,2.789,0,0,0,2.631,1.58h195.1a2.931,2.931,0,0,0,2.735-1.557,2.74,2.74,0,0,0,0-3.1l0,0L674.68,645.924a3.011,3.011,0,0,1-.231-.439c-3.34-7.888-10.5-12.985-18.246-12.985a18.521,18.521,0,0,0-11.046,3.708,3,3,0,0,1-3.982-.375A18.979,18.979,0,0,0,627.2,629.5c-7.37,0-14.159,4.527-17.719,11.816a3,3,0,0,1-2.7,1.684h-4.218a3,3,0,0,1-2.223-.986,18.612,18.612,0,0,0-28.287,0,3,3,0,0,1-2.225.986h-.972A24.5,24.5,0,0,1,546.589,643.539Z"
                fill="#3f2975"/>
            <circle cx="599.715" cy="600.465" r="10.049" fill="#0cf9c3"/>
            <path
                d="M599.715,613.514a13.049,13.049,0,1,1,13.049-13.049A13.064,13.064,0,0,1,599.715,613.514Zm0-20.1a7.049,7.049,0,1,0,7.049,7.048A7.056,7.056,0,0,0,599.715,593.417Z"
                fill="#3f2975"/>
            <circle cx="634.267" cy="607.066" r="6.601" fill="#0cf9c3"/>
            <path
                d="M634.268,616.667a9.6,9.6,0,1,1,9.6-9.6A9.612,9.612,0,0,1,634.268,616.667Zm0-13.2a3.6,3.6,0,1,0,3.6,3.6A3.6,3.6,0,0,0,634.268,603.465Z"
                fill="#3f2975"/>
            <circle cx="613.25" cy="545.75" r="5.25" fill="#0cf9c3"/>
            <path
                d="M613.25,554a8.25,8.25,0,1,1,8.25-8.25A8.259,8.259,0,0,1,613.25,554Zm0-10.5a2.25,2.25,0,1,0,2.25,2.25A2.253,2.253,0,0,0,613.25,543.5Z"
                fill="#3f2975"/>
            <circle cx="596" cy="663" r="6.375" fill="#3f2975"/>
            <circle cx="637.812" cy="677.813" r="3.187" fill="#3f2975"/>
            <path
                d="M618.066,491.632a5.066,5.066,0,1,1,5.066-5.066A5.072,5.072,0,0,1,618.066,491.632Zm0-6a.934.934,0,1,0,.934.934A.935.935,0,0,0,618.066,485.632Z"
                fill="#3f2975"/>
            <path
                d="M602.066,444.632a5.066,5.066,0,1,1,5.066-5.066A5.072,5.072,0,0,1,602.066,444.632Zm0-6a.934.934,0,1,0,.934.934A.935.935,0,0,0,602.066,438.632Z"
                fill="#3f2975"/>
        </g>
    </g>
</svg>
